<svg xmlns="http://www.w3.org/2000/svg" xmlns:xlink="http://www.w3.org/1999/xlink" width="500" zoomAndPan="magnify" viewBox="0 0 375 374.999991" height="500" preserveAspectRatio="xMidYMid meet" version="1.0"><defs><clipPath id="fb3b8b8bba"><path d="M 145.21875 150.761719 L 229.96875 150.761719 L 229.96875 246.761719 L 145.21875 246.761719 Z M 145.21875 150.761719 " clip-rule="nonzero"/></clipPath></defs><g clip-path="url(#fb3b8b8bba)"><path fill="#09f7f3" d="M 160.09375 204.632812 C 160.09375 204.664062 160.117188 204.6875 160.148438 204.6875 L 163.589844 204.6875 C 163.621094 204.6875 163.644531 204.710938 163.644531 204.742188 L 163.644531 209.878906 C 163.644531 209.910156 163.621094 209.933594 163.589844 209.933594 L 154.902344 209.933594 C 154.871094 209.933594 154.847656 209.910156 154.847656 209.878906 L 154.847656 160.4375 C 154.847656 160.40625 154.871094 160.382812 154.902344 160.382812 L 171.75 160.382812 C 181.414062 160.382812 190.054688 166.054688 194.101562 174.484375 C 194.121094 174.519531 194.09375 174.5625 194.050781 174.5625 L 188.179688 174.5625 C 188.164062 174.5625 188.144531 174.554688 188.136719 174.539062 C 184.609375 169.132812 178.496094 165.628906 171.75 165.628906 L 160.148438 165.628906 C 160.117188 165.628906 160.09375 165.652344 160.09375 165.683594 Z M 229.078125 214.136719 C 228.191406 232.609375 212.347656 246.851562 193.851562 246.851562 L 168.261719 246.851562 C 168.230469 246.851562 168.207031 246.824219 168.207031 246.796875 L 168.207031 178.117188 C 168.207031 178.085938 168.230469 178.0625 168.261719 178.0625 L 194.726562 178.0625 C 196.394531 178.0625 198.019531 178.195312 199.625 178.425781 C 199.660156 178.433594 199.691406 178.402344 199.683594 178.363281 C 197.257812 165.355469 184.863281 156.007812 171.75 156.007812 C 171.742188 156.007812 150.527344 156.007812 150.527344 156.007812 C 150.5 156.007812 150.472656 156.035156 150.472656 156.0625 L 150.472656 214.25 C 150.472656 214.28125 150.5 214.304688 150.527344 214.304688 L 163.589844 214.304688 C 163.621094 214.304688 163.644531 214.328125 163.644531 214.359375 L 163.644531 219.496094 C 163.644531 219.527344 163.621094 219.550781 163.589844 219.550781 L 145.28125 219.550781 C 145.253906 219.550781 145.226562 219.527344 145.226562 219.496094 L 145.226562 150.816406 C 145.226562 150.789062 145.253906 150.761719 145.28125 150.761719 L 171.75 150.761719 C 188.648438 150.761719 203.03125 163.261719 205.730469 179.859375 C 207.445312 180.386719 209.53125 181.410156 209.53125 181.410156 C 221.582031 187.171875 229.765625 199.761719 229.078125 214.136719 Z M 204.523438 195.804688 C 204.496094 195.789062 204.457031 195.804688 204.445312 195.835938 C 204.109375 196.878906 203.722656 197.902344 203.289062 198.898438 C 200.152344 206.109375 194.640625 212.03125 187.664062 215.644531 C 187.628906 215.664062 187.582031 215.636719 187.582031 215.59375 L 187.582031 209.671875 C 187.582031 209.65625 187.59375 209.636719 187.609375 209.628906 C 192.414062 206.507812 196.21875 202.039062 198.511719 196.730469 C 198.898438 195.832031 199.234375 194.90625 199.535156 193.964844 C 199.542969 193.933594 199.523438 193.898438 199.492188 193.890625 C 198.164062 193.574219 196.707031 193.371094 195.152344 193.351562 C 195.128906 193.351562 195.105469 193.363281 195.097656 193.386719 C 193.621094 197.566406 191.050781 201.273438 187.675781 204.109375 C 187.640625 204.140625 187.582031 204.113281 187.582031 204.066406 L 187.582031 196.589844 C 188.394531 195.449219 189.078125 194.265625 189.628906 193.003906 C 189.644531 192.96875 189.617188 192.925781 189.578125 192.925781 L 183.125 192.925781 C 183.097656 192.925781 183.070312 192.949219 183.070312 192.980469 L 183.070312 231.929688 C 183.070312 231.960938 183.097656 231.984375 183.125 231.984375 L 194.078125 231.984375 C 204.859375 231.984375 214.28125 223.175781 214.253906 212.394531 C 214.234375 205.550781 210.613281 199.03125 204.523438 195.804688 Z M 223.832031 213.941406 C 224.394531 202.738281 218.589844 192.824219 209.730469 187.46875 L 206.203125 185.355469 C 206.195312 186.148438 206.15625 186.933594 206.050781 187.679688 C 205.984375 188.527344 205.898438 189.375 205.769531 190.214844 C 205.769531 190.238281 205.78125 190.261719 205.800781 190.273438 C 207.136719 190.871094 208.375 191.582031 209.3125 192.425781 C 215.679688 197.019531 219.542969 204.429688 219.5 212.59375 C 219.421875 226.347656 207.734375 237.230469 193.980469 237.230469 L 177.878906 237.230469 C 177.851562 237.230469 177.824219 237.207031 177.824219 237.175781 L 177.824219 187.734375 C 177.824219 187.703125 177.851562 187.679688 177.878906 187.679688 C 178.941406 187.679688 180 187.679688 181.0625 187.679688 C 183.898438 187.679688 186.738281 187.679688 189.574219 187.679688 C 193.316406 187.679688 196.96875 187.578125 200.628906 188.519531 C 200.660156 188.527344 200.695312 188.503906 200.699219 188.472656 C 200.824219 187.371094 200.898438 186.261719 200.898438 185.152344 C 200.898438 184.75 200.890625 184.355469 200.875 183.964844 C 198.890625 183.535156 196.835938 183.308594 194.726562 183.308594 L 173.507812 183.308594 C 173.476562 183.308594 173.453125 183.332031 173.453125 183.363281 L 173.453125 241.550781 C 173.453125 241.578125 173.476562 241.605469 173.507812 241.605469 L 193.941406 241.605469 C 209.597656 241.605469 223.050781 229.582031 223.832031 213.941406 Z M 223.832031 213.941406 " fill-opacity="1" fill-rule="nonzero"/></g><path fill="#09f7f3" d="M 244.207031 204.730469 C 256.816406 189.625 277.054688 189.917969 295.382812 190.359375 C 300.511719 190.503906 305.5 190.652344 310.191406 190.359375 C 318.402344 189.917969 328.8125 187.574219 339.222656 183.613281 C 346.40625 180.828125 353.59375 177.308594 359.898438 173.058594 C 348.605469 191.238281 343.035156 192.117188 327.347656 196.222656 C 355.351562 195.34375 362.390625 176.578125 370.894531 159.859375 C 360.191406 170.269531 352.566406 175.550781 338.195312 180.976562 C 328.226562 184.789062 318.109375 187.132812 310.042969 187.574219 C 305.5 187.867188 300.511719 187.71875 295.382812 187.574219 C 276.320312 187.132812 255.351562 186.695312 242.007812 202.96875 Z M 245.382812 239.039062 C 250.511719 239.773438 255.351562 237.132812 257.550781 232.589844 C 259.457031 228.777344 258.871094 224.375 256.523438 221.003906 C 259.605469 225.257812 259.898438 230.976562 257.113281 235.519531 C 253.886719 240.800781 247.140625 243 241.421875 240.652344 C 225 234.199219 235.996094 211.621094 248.753906 205.167969 C 267.082031 195.929688 291.277344 204.289062 311.511719 203.261719 C 323.679688 202.675781 334.238281 200.917969 344.648438 194.613281 C 337.609375 203.554688 332.625 211.621094 321.1875 215.871094 C 314.148438 218.511719 306.085938 218.660156 297.140625 216.019531 C 290.542969 214.113281 279.105469 209.566406 267.667969 215.433594 C 276.757812 208.394531 287.609375 210.300781 297.875 213.378906 C 306.230469 215.726562 313.5625 215.578125 320.160156 213.234375 C 325.878906 211.179688 330.863281 207.367188 335.265625 202.234375 C 327.054688 204.582031 319.136719 205.753906 311.511719 206.046875 C 292.15625 207.074219 266.933594 199.011719 249.925781 207.660156 C 237.023438 214.257812 228.664062 236.546875 245.382812 239.039062 Z M 368.695312 142.707031 C 365.03125 159.859375 355.207031 164.40625 345.96875 169.539062 C 371.1875 161.914062 371.335938 142.265625 375 132 C 352.125 154.433594 317.230469 176.136719 285.558594 182.734375 C 310.777344 184.199219 353.738281 158.246094 368.695312 142.707031 Z M 368.695312 142.707031 " fill-opacity="1" fill-rule="nonzero"/><path fill="#09f7f3" d="M 130.792969 204.730469 C 118.183594 189.625 97.945312 189.917969 79.617188 190.359375 C 74.488281 190.503906 69.5 190.652344 64.808594 190.359375 C 56.597656 189.917969 46.1875 187.574219 35.777344 183.613281 C 28.59375 180.828125 21.40625 177.308594 15.101562 173.058594 C 26.394531 191.238281 31.964844 192.117188 47.652344 196.222656 C 19.648438 195.34375 12.609375 176.578125 4.105469 159.859375 C 14.808594 170.269531 22.433594 175.550781 36.804688 180.976562 C 46.773438 184.789062 56.890625 187.132812 64.957031 187.574219 C 69.5 187.867188 74.488281 187.71875 79.617188 187.574219 C 98.679688 187.132812 119.648438 186.695312 132.992188 202.96875 Z M 129.617188 239.039062 C 124.488281 239.773438 119.648438 237.132812 117.449219 232.589844 C 115.542969 228.777344 116.128906 224.375 118.476562 221.003906 C 115.394531 225.257812 115.101562 230.976562 117.886719 235.519531 C 121.113281 240.800781 127.859375 243 133.578125 240.652344 C 150 234.199219 139.003906 211.621094 126.246094 205.167969 C 107.917969 195.929688 83.722656 204.289062 63.488281 203.261719 C 51.320312 202.675781 40.761719 200.917969 30.351562 194.613281 C 37.390625 203.554688 42.375 211.621094 53.8125 215.871094 C 60.851562 218.511719 68.914062 218.660156 77.859375 216.019531 C 84.457031 214.113281 95.894531 209.566406 107.332031 215.433594 C 98.242188 208.394531 87.390625 210.300781 77.125 213.378906 C 68.769531 215.726562 61.4375 215.578125 54.839844 213.234375 C 49.121094 211.179688 44.136719 207.367188 39.734375 202.234375 C 47.945312 204.582031 55.863281 205.753906 63.488281 206.046875 C 82.84375 207.074219 108.066406 199.011719 125.074219 207.660156 C 137.976562 214.257812 146.335938 236.546875 129.617188 239.039062 Z M 6.304688 142.707031 C 9.96875 159.859375 19.792969 164.40625 29.03125 169.539062 C 3.8125 161.914062 3.664062 142.265625 0 132 C 22.875 154.433594 57.769531 176.136719 89.441406 182.734375 C 64.222656 184.199219 21.261719 158.246094 6.304688 142.707031 Z M 6.304688 142.707031 " fill-opacity="1" fill-rule="nonzero"/></svg>